<svg xmlns:xlink="http://www.w3.org/1999/xlink" class="brandLogoCreditKarma" width="98" height="17" viewBox="0 0 98 17" fill="none" xmlns="http://www.w3.org/2000/svg">
    <path class="svg_text" d="M24.5309 7.93361C23.9636 7.23288 22.8745 6.81543 21.8309 6.81543C19.7291 6.81543 18 8.27652 18 10.6023C18 12.9878 19.76 14.3892 21.8764 14.3892C22.9345 14.3892 23.9182 14.0314 24.5146 13.3903L23.3964 12.2572C23.0545 12.6747 22.4436 12.8983 21.8909 12.8983C20.5345 12.8983 19.8636 11.7205 19.8636 10.6023C19.8636 9.48416 20.52 8.30634 21.8309 8.30634C22.4127 8.30634 23.0236 8.60452 23.3073 9.00707L24.5309 7.93361Z" fill="#241C15"></path>
    <path class="svg_text" d="M25.5156 14.1805H27.3047V10.3489C27.3047 9.82707 27.6174 8.42561 29.2265 8.42561C29.392 8.42561 29.5411 8.44052 29.7793 8.50016V6.86016C29.6593 6.83034 29.4811 6.81543 29.3465 6.81543C28.4065 6.81543 27.6465 7.39688 27.2593 8.21688H27.2302V7.02416H25.5156V14.1805Z" fill="#241C15"></path>
    <path class="svg_text" d="M31.875 9.8867C31.9496 8.88779 32.7987 8.15725 33.8569 8.15725C35.0205 8.15725 35.5423 8.96234 35.5423 9.8867H31.875ZM37.3314 10.6918C37.3314 8.11252 35.8696 6.81543 33.8714 6.81543C31.7096 6.81543 30.0859 8.33616 30.0859 10.6471C30.0859 12.9729 31.7259 14.3892 33.9314 14.3892C35.2878 14.3892 36.3023 13.9122 37.0023 12.958L35.8096 12.0038C35.4078 12.5703 34.8114 12.9282 33.9169 12.9282C32.8732 12.9282 31.9496 12.1827 31.875 11.1689H37.3169C37.3314 11.0049 37.3314 10.8558 37.3314 10.6918Z" fill="#241C15"></path>
    <path class="svg_text" d="M45.9749 2.90918H44.1858V7.93354H44.1421C43.7694 7.47136 43.053 6.81536 41.7421 6.81536C39.6985 6.81536 38.2676 8.45536 38.2676 10.5725C38.2676 12.6597 39.6094 14.3892 41.7858 14.3892C42.7858 14.3892 43.7549 13.927 44.2458 13.107H44.2767V14.1805H45.9749V2.90918ZM40.0858 10.5725C40.0858 9.45427 40.7567 8.27645 42.1439 8.27645C43.4567 8.27645 44.2458 9.48409 44.2458 10.6023C44.2458 11.7205 43.4567 12.8983 42.1439 12.8983C40.7567 12.8983 40.0858 11.6906 40.0858 10.5725Z" fill="#241C15"></path>
    <path class="svg_text" d="M47.8152 14.1805H49.6043V7.02414H47.8152V14.1805ZM47.5625 4.59396C47.5625 5.16051 48.0389 5.66742 48.6952 5.66742C49.3516 5.66742 49.8589 5.20524 49.8589 4.59396C49.8589 3.98269 49.3516 3.52051 48.6952 3.52051C48.0389 3.52051 47.5625 4.02742 47.5625 4.59396Z" fill="#241C15"></path>
    <path class="svg_text" d="M52.1805 8.4553V11.7949C52.1805 13.1666 52.6132 14.3295 54.5059 14.3295C54.9096 14.3295 55.3859 14.2549 55.6986 14.1357L55.6386 12.7342C55.4314 12.8386 55.1168 12.8833 54.8786 12.8833C54.0896 12.8833 53.9405 12.4211 53.9405 11.78V8.4553H55.7296V7.02402H53.9405V4.95166H52.1805V7.02402H50.9277V8.4553H52.1805Z" fill="#241C15"></path>
    <path class="svg_text" d="M57.0527 14.1805H58.8418V10.5128H58.8873L61.72 14.1805H64.0909L60.7946 10.2594L63.8964 7.02409H61.6L58.8873 10.0357H58.8418V2.90918H57.0527V14.1805Z" fill="#241C15"></path>
    <path class="svg_text" d="M69.2927 14.1805H70.9618V9.82707C70.9618 8.39579 70.3363 6.81543 67.7709 6.81543C66.6836 6.81543 65.5491 7.20307 64.7454 7.94852L65.6691 9.03688C66.1309 8.5747 66.8618 8.21688 67.6218 8.21688C68.5163 8.21688 69.2618 8.64925 69.2618 9.52888V9.70779C67.0254 9.70779 64.3418 10.006 64.3418 12.138C64.3418 13.8078 65.8782 14.3594 67.0254 14.3594C68.04 14.3594 68.8891 13.8972 69.2473 13.2711H69.2927V14.1805ZM69.2618 11.1689C69.2618 12.302 68.6054 13.0027 67.3836 13.0027C66.7727 13.0027 66.1309 12.794 66.1309 12.1082C66.1309 11.0496 67.7272 10.9154 68.86 10.9154H69.2618V11.1689Z" fill="#241C15"></path>
    <path class="svg_text" d="M72.5 14.1805H74.2891V10.3489C74.2891 9.82707 74.6036 8.42561 76.2127 8.42561C76.3764 8.42561 76.5255 8.44052 76.7655 8.50016V6.86016C76.6455 6.83034 76.4673 6.81543 76.3327 6.81543C75.3927 6.81543 74.6327 7.39688 74.2455 8.21688H74.2145V7.02416H72.5V14.1805Z" fill="#241C15"></path>
    <path class="svg_text" d="M86.6569 6.81543C85.5842 6.81543 84.7787 7.30743 84.3006 8.17216C83.8987 7.36707 83.1678 6.81543 82.0642 6.81543C80.9169 6.81543 80.1569 7.47143 79.8442 8.17216H79.8133V7.02416H78.1133V14.1805H79.9024V10.2445C79.9024 9.29034 80.3951 8.30634 81.4678 8.30634C82.3787 8.30634 82.7951 8.97725 82.7951 9.85688V14.1805H84.5842V10.2743C84.5842 9.34997 85.046 8.30634 86.1642 8.30634C87.3133 8.30634 87.506 9.36488 87.506 10.2147V14.1805H89.2951V9.70779C89.2951 8.2467 88.5206 6.81543 86.6569 6.81543Z" fill="#241C15"></path>
    <path class="svg_text" d="M95.2753 14.1805H96.9462V9.82707C96.9462 8.39579 96.3189 6.81543 93.7553 6.81543C92.6662 6.81543 91.5334 7.20307 90.728 7.94852L91.6534 9.03688C92.1153 8.5747 92.8462 8.21688 93.6062 8.21688C94.5007 8.21688 95.2462 8.64925 95.2462 9.52888V9.70779C93.0098 9.70779 90.3262 10.006 90.3262 12.138C90.3262 13.8078 91.8607 14.3594 93.0098 14.3594C94.0225 14.3594 94.8734 13.8972 95.2316 13.2711H95.2753V14.1805ZM95.2462 11.1689C95.2462 12.302 94.5898 13.0027 93.368 13.0027C92.7553 13.0027 92.1153 12.794 92.1153 12.1082C92.1153 11.0496 93.7098 10.9154 94.8425 10.9154H95.2462V11.1689Z" fill="#241C15"></path>
    <path class="svg_circle" d="M8.0091 16.0182C12.4328 16.0182 16.0182 12.4324 16.0182 8.00909C16.0182 3.5858 12.4328 0 8.0091 0C3.58546 0 0 3.5858 0 8.00909C0 12.4324 3.58546 16.0182 8.0091 16.0182Z" fill="#241C15"></path>
    <path class="svg_logo" d="M3.96874 8.81211C3.96874 7.43406 4.63237 6.72608 5.70147 6.72608C6.49783 6.72608 6.99058 7.03582 7.16876 7.12433C7.30148 6.99159 7.38874 6.77033 7.38874 6.54908C7.38874 6.15084 6.94692 5.7526 5.65783 5.7526C4.14692 5.7526 2.86328 6.81458 2.86328 8.81211C2.86328 10.8096 4.01965 11.8716 5.5251 11.8716C6.45419 11.8716 7.16874 11.5619 7.38874 11.4734V10.3671C7.16874 10.5441 6.41601 10.8981 5.70147 10.8981C4.72874 10.8981 3.96874 10.1901 3.96874 8.81211ZM11.3342 8.76786C11.9978 7.97137 12.6233 7.03582 13.0651 5.84109L12.0924 5.48711C11.4724 7.17489 10.5378 8.32537 9.43056 9.26093V3.44531H8.36874V11.7452H9.43056V10.4999C9.82874 10.1901 10.1833 9.88042 10.5869 9.52642L11.5615 11.2142C11.7833 11.6125 12.136 11.8337 12.6233 11.8337C12.8888 11.8337 13.0651 11.7452 13.1106 11.7009L11.3342 8.77418V8.76786Z" fill="#FFFFFF"></path>
</svg>