<svg xmlns:xlink="http://www.w3.org/1999/xlink" xmlns="http://www.w3.org/2000/svg" width="102" height="40" viewBox="0 0 102 40" fill="none">
<g id="EN" clip-path="url(#clip0_309_626)">
<path id="Shape-path" fill-rule="evenodd" clip-rule="evenodd" d="M25.5811 17.6581L19.4142 23.9563C19.2366 24.1378 18.8857 24.2863 18.6344 24.2863H18.1017C17.8504 24.2863 17.4995 24.1373 17.3221 23.9563L14.418 20.9835C14.2406 20.802 14.2409 20.5052 14.4187 20.3242L15.5617 19.1596C15.7395 18.9781 16.0304 18.9781 16.2085 19.1591L18.0639 21.0457C18.242 21.2269 18.5329 21.2267 18.7105 21.0452L23.7958 15.8514C23.9734 15.6701 24.2645 15.6691 24.4429 15.8496L25.5797 17C25.7578 17.1808 25.7585 17.4764 25.5811 17.6581V17.6581Z" fill="#231E15"/>
<g id="Group">
<path id="Shape" d="M20.001 0L20.6489 2.09709H22.7461L21.0496 3.39311L21.6975 5.4902L20.001 4.19335L18.3049 5.4902L18.9529 3.39311L17.2559 2.09709H19.353L20.001 0Z" fill="#231E15"/>
<path id="Shape_2" d="M20.001 34.5098L20.6489 36.6075H22.7461L21.0496 37.9033L21.6975 40L20.001 38.7043L18.3049 40L18.9529 37.9033L17.2559 36.6075H19.353L20.001 34.5098Z" fill="#231E15"/>
<path id="Shape_3" d="M28.6279 3.1377L29.2756 5.23476H31.373L29.6762 6.5313L30.3243 8.62789L28.6279 7.33135L26.9312 8.62789L27.5792 6.5313L25.8828 5.23476H27.9802L28.6279 3.1377Z" fill="#231E15"/>
<path id="Shape_4" d="M35.6028 25.7139L36.2504 27.8116H38.3476L36.651 29.1076L37.2994 31.2041L35.6028 29.9086L33.9061 31.2041L34.5542 29.1076L32.8574 27.8116H34.9547L35.6028 25.7139Z" fill="#231E15"/>
<path id="Shape_5" d="M37.255 17.2549L37.9027 19.3518H40L38.3033 20.6477L38.9513 22.7451L37.255 21.4496L35.5584 22.7451L36.2068 20.6477L34.5098 19.3518H36.6066L37.255 17.2549Z" fill="#231E15"/>
<path id="Shape_6" d="M2.74549 17.2549L3.39319 19.3518H5.4902L3.79343 20.6477L4.44192 22.7451L2.74549 21.4496L1.04861 22.7451L1.69676 20.6477L0 19.3518H2.09734L2.74549 17.2549Z" fill="#231E15"/>
<path id="Shape_7" d="M4.17323 25.7139L4.82093 27.8116H6.91793L5.22162 29.1076L5.8692 31.2041L4.17323 29.9086L2.47646 31.2041L3.1245 29.1076L1.42773 27.8116H3.52519L4.17323 25.7139Z" fill="#231E15"/>
<path id="Shape_8" d="M35.6028 8.57129L36.2504 10.6691H38.3476L36.651 11.965L37.2994 14.0615L35.6028 12.766L33.9061 14.0615L34.5542 11.965L32.8574 10.6691H34.9547L35.6028 8.57129Z" fill="#231E15"/>
<path id="Shape_9" d="M4.88807 8.57129L5.53577 10.6691H7.63277L5.93646 11.965L6.58405 14.0615L4.88807 12.766L3.19131 14.0615L3.83934 11.965L2.14258 10.6691H4.24003L4.88807 8.57129Z" fill="#231E15"/>
<path id="Shape_10" d="M30.1964 32.9414L30.8441 35.0382H32.9414L31.2443 36.3348L31.8927 38.4316L30.1964 37.1358L28.4994 38.4316L29.1479 36.3348L27.4512 35.0382H29.5485L30.1964 32.9414Z" fill="#231E15"/>
<path id="Shape_11" d="M11.3721 3.1377L12.0197 5.23476H14.1171L12.4204 6.5313L13.0689 8.62789L11.3721 7.33135L9.67568 8.62789L10.3237 6.5313L8.62695 5.23476H10.724L11.3721 3.1377Z" fill="#231E15"/>
<path id="Shape_12" d="M9.80352 32.9414L10.4515 35.0393H12.5488L10.8522 36.3347L11.5001 38.4316L9.80352 37.1365L8.10724 38.4316L8.75522 36.3347L7.05859 35.0393H9.15543L9.80352 32.9414Z" fill="#231E15"/>
</g>
<g id="Frame 369975" clip-path="url(#clip1_309_626)">
<path id="Ready" d="M55.326 14.234C59.646 14.234 61.752 11.678 61.752 8.474V6.818H55.578V9.5H57.774C57.684 10.346 57.072 11.138 55.452 11.138C53.364 11.138 52.734 9.608 52.734 7.718V7.574C52.734 5.396 53.724 4.136 55.344 4.136C56.604 4.136 57.27 4.73 57.414 5.792H61.446C61.23 2.354 58.458 0.932 55.326 0.932C51.42 0.932 48.486 3.56 48.486 7.502V7.646C48.486 11.516 50.88 14.234 55.326 14.234ZM67.78 10.868V4.262H68.446C70.426 4.262 71.308 5.126 71.308 7.484V7.628C71.308 9.878 70.462 10.868 68.464 10.868H67.78ZM63.694 14H68.608C73.144 14 75.556 11.642 75.556 7.538V7.412C75.556 3.326 73.216 1.13 68.608 1.13H63.694V14ZM77.4973 14H81.5653V9.806H82.8073C86.1373 9.806 87.9193 8.294 87.9193 5.612V5.54C87.9193 2.786 86.3353 1.13 82.6273 1.13H77.4973V14ZM81.5653 7.07V4.172H82.4293C83.4913 4.172 84.0493 4.568 84.0493 5.558V5.63C84.0493 6.584 83.4913 7.07 82.4113 7.07H81.5653ZM89.7361 14H93.8041V9.59H94.4521L96.8461 14H101.13L98.1961 8.744C99.4741 8.168 100.374 7.16 100.374 5.378V5.306C100.374 2.552 98.5381 1.13 94.9921 1.13H89.7361V14ZM93.8041 6.962V4.19H94.7761C95.8741 4.19 96.4321 4.55 96.4321 5.486V5.558C96.4321 6.494 95.8921 6.962 94.7581 6.962H93.8041Z" fill="#231E15"/>
<path id="Ready_2" d="M48.77 27V19.85H53.36V21.12H50.39V23.01H52.74V24.23H50.39V27H48.77ZM54.7295 27V19.85H57.2895C58.9795 19.85 60.0495 20.54 60.0495 22.02V22.06C60.0495 23.14 59.4195 23.71 58.5795 23.96L60.4695 27H58.7495L57.0395 24.24H56.3395V27H54.7295ZM56.3395 23.14H57.2495C58.0595 23.14 58.4695 22.8 58.4695 22.11V22.07C58.4695 21.34 58.0295 21.09 57.2495 21.09H56.3395V23.14ZM61.774 27V19.85H63.404V27H61.774ZM65.2717 27V19.85H69.9317V21.11H66.8817V22.78H69.3217V23.96H66.8817V25.74H70.0917V27H65.2717ZM71.5047 27V19.85H73.3847L76.1047 24.56V19.85H77.5447V27H75.9247L72.9447 21.91V27H71.5047ZM79.3685 27V19.85H81.7085C84.2185 19.85 85.4585 21.21 85.4585 23.35V23.43C85.4585 25.57 84.2085 27 81.6985 27H79.3685ZM80.9885 25.74H81.6485C83.0885 25.74 83.7685 24.93 83.7685 23.45V23.37C83.7685 21.9 83.1385 21.11 81.6285 21.11H80.9885V25.74ZM86.9101 27V19.85H88.5301V25.73H91.4401V27H86.9101ZM93.6716 27V23.92L91.3116 19.85H93.0916L94.5416 22.59L95.9616 19.85H97.5316L95.3016 23.92V27H93.6716Z" fill="#231E15"/>
<path id="Ready_3" d="M50.17 39V33.11H48.24V31.85H53.73V33.11H51.8V39H50.17ZM58.0295 39.11C55.7895 39.11 54.3595 37.56 54.3595 35.47V35.39C54.3595 33.26 55.9195 31.75 58.0395 31.75C60.1895 31.75 61.7195 33.2 61.7195 35.35V35.43C61.7195 37.56 60.2595 39.11 58.0295 39.11ZM58.0595 37.82C59.2695 37.82 60.0295 36.89 60.0295 35.45V35.37C60.0295 33.98 59.2895 33.03 58.0395 33.03C56.7995 33.03 56.0495 33.94 56.0495 35.38V35.46C56.0495 36.92 56.8895 37.82 58.0595 37.82ZM66.4793 39.11C64.2393 39.11 62.8093 37.56 62.8093 35.47V35.39C62.8093 33.26 64.3693 31.75 66.4893 31.75C68.6393 31.75 70.1693 33.2 70.1693 35.35V35.43C70.1693 37.56 68.7093 39.11 66.4793 39.11ZM66.5093 37.82C67.7193 37.82 68.4793 36.89 68.4793 35.45V35.37C68.4793 33.98 67.7393 33.03 66.4893 33.03C65.2493 33.03 64.4993 33.94 64.4993 35.38V35.46C64.4993 36.92 65.3393 37.82 66.5093 37.82ZM71.6291 39V31.85H73.2491V37.73H76.1591V39H71.6291ZM79.9324 39.11C77.9724 39.11 77.0724 38.19 76.9824 36.76H78.5324C78.6024 37.4 78.8724 37.93 79.9324 37.93C80.6424 37.93 81.1124 37.54 81.1124 36.98C81.1124 36.41 80.8124 36.21 79.7624 36.05C77.9324 35.81 77.1824 35.26 77.1824 33.88C77.1824 32.66 78.2024 31.75 79.7824 31.75C81.3924 31.75 82.3324 32.47 82.4624 33.89H80.9724C80.8724 33.24 80.4924 32.94 79.7824 32.94C79.0724 32.94 78.7124 33.27 78.7124 33.75C78.7124 34.26 78.9424 34.5 80.0424 34.66C81.7724 34.88 82.6624 35.35 82.6624 36.83C82.6624 38.1 81.6224 39.11 79.9324 39.11Z" fill="#231E15"/>
</g>
</g>
<defs>
<clipPath id="clip0_309_626">
<rect width="102" height="40" fill="white"/>
</clipPath>
<clipPath id="clip1_309_626">
<rect width="54" height="40" fill="white" transform="translate(48)"/>
</clipPath>
</defs>
</svg>