<svg xmlns:xlink="http://www.w3.org/1999/xlink" class="brandLogoQuickBooks" width="95" height="18" viewBox="0 0 95 18" fill="none" xmlns="http://www.w3.org/2000/svg">
    <path class="svg_circle" d="M8.00907 16.0187C12.4327 16.0187 16.0182 12.4328 16.0182 8.00936C16.0182 3.58593 12.4327 0 8.00907 0C3.58543 0 0 3.58593 0 8.00936C0 12.4328 3.58543 16.0187 8.00907 16.0187Z" fill="#575757"></path>
    <path class="svg_logo" d="M2.23047 8.0095C2.23047 9.70366 3.60867 11.0565 5.33412 11.0565H5.77592V9.92492H5.33412C4.2723 9.92492 3.38685 9.05886 3.38685 8.0095C3.38685 6.96014 4.2723 6.09408 5.33412 6.09408H6.39594V12.0173C6.39594 12.6306 6.92685 13.1489 7.55412 13.1489V4.95621H5.33412C3.60867 4.95621 2.23047 6.30903 2.23047 8.00319V8.0095ZM10.6632 4.96254H10.2214V6.09408H10.6632C11.725 6.09408 12.6105 6.96014 12.6105 8.0095C12.6105 9.05886 11.725 9.92492 10.6632 9.92492H9.60139V4.00166C9.60139 3.38848 9.07048 2.87012 8.44503 2.87012V11.0565H10.6632C12.3886 11.0565 13.7687 9.70366 13.7687 8.0095C13.7687 6.31534 12.3886 4.96254 10.6632 4.96254Z" fill="#FFFFFF"></path>
    <path class="svg_text" d="M25.8082 17.6748H24.0082V13.1865H23.9827C23.5136 13.9008 22.5973 14.337 21.5936 14.337C19.3937 14.337 18.041 12.624 18.041 10.5505C18.041 8.47706 19.4882 6.82715 21.5555 6.82715C22.8827 6.82715 23.6918 7.4656 24.0591 8.02822H24.1027V7.03575H25.8355V17.6812H25.8227L25.8082 17.6748ZM21.9409 12.8516C23.2682 12.8516 24.0646 11.6821 24.0646 10.5758C24.0646 9.46953 23.2682 8.26844 21.9409 8.26844C20.5373 8.26844 19.8609 9.43158 19.8609 10.5442C19.8609 11.6568 20.5373 12.8516 21.9409 12.8516Z" fill="#575757"></path>
    <path class="svg_text" d="M34.2427 14.1287H32.5282V12.991H32.5045C32.1882 13.7053 31.3282 14.3311 30.2609 14.3311C28.3827 14.3311 27.5918 12.915 27.5918 11.4611V7.02344H29.3936V10.9554C29.3936 11.7961 29.59 12.8455 30.7463 12.8455C31.9045 12.8455 32.4336 11.8657 32.4336 10.9238V7.02344H34.2482V14.1162L34.2427 14.1287Z" fill="#575757"></path>
    <path class="svg_text" d="M36.082 7.03564H37.8984V14.1283H36.082V7.03564Z" fill="#575757"></path>
    <path class="svg_text" d="M44.6286 9.00183C44.3449 8.60357 43.7249 8.31277 43.1359 8.31277C41.8086 8.31277 41.1449 9.47594 41.1449 10.5885C41.1449 11.7011 41.8213 12.8642 43.194 12.8642C43.7559 12.8642 44.3686 12.643 44.7177 12.2258L45.8431 13.3511C45.2413 13.9894 44.2431 14.3436 43.1759 14.3436C41.0377 14.3436 39.2559 12.9527 39.2559 10.5948C39.2559 8.23692 41.0068 6.84619 43.1249 6.84619C44.1795 6.84619 45.2813 7.2571 45.8486 7.95246L44.6104 9.01446L44.6286 9.00183Z" fill="#575757"></path>
    <path class="svg_text" d="M46.773 2.9585H48.5803V10.0259H48.6239L51.3694 7.04219H53.6894L50.5603 10.2535L53.8912 14.1413H51.5003L48.6367 10.5064H48.593V14.1413H46.7803V2.9585H46.7676H46.773Z" fill="#575757"></path>
    <path class="svg_text" d="M56.541 2.9585V7.93984H56.5901C56.9647 7.47837 57.692 6.83357 59.0192 6.83357C61.0792 6.83357 62.5265 8.45819 62.5265 10.5569C62.5265 12.6557 61.1738 14.3435 58.9738 14.3435C57.9629 14.3435 56.9829 13.882 56.4901 13.0729H56.4647V14.1349H54.752V2.9585H56.541ZM58.6083 8.27488C57.281 8.27488 56.4829 9.47597 56.4829 10.5822C56.4829 11.6885 57.281 12.858 58.6083 12.858C60.0101 12.858 60.6865 11.6632 60.6865 10.5506C60.6865 9.43804 60.0101 8.27488 58.6083 8.27488Z" fill="#575757"></path>
    <path class="svg_text" d="M67.464 6.8335C69.6494 6.8335 71.3949 8.32537 71.3949 10.5569C71.3949 12.7884 69.644 14.3433 67.464 14.3433C65.2822 14.3433 63.5312 12.7884 63.5312 10.5569C63.5312 8.32537 65.2822 6.8335 67.464 6.8335ZM67.464 12.8642C68.8912 12.8642 69.5549 11.6694 69.5549 10.5569C69.5549 9.4443 68.8912 8.28113 67.464 8.28113C66.0349 8.28113 65.3712 9.4443 65.3712 10.5569C65.3712 11.6694 66.0349 12.8642 67.464 12.8642Z" fill="#575757"></path>
    <path class="svg_text" d="M76.3059 6.8335C78.4877 6.8335 80.2386 8.32537 80.2386 10.5569C80.2386 12.7884 78.4877 14.3433 76.3059 14.3433C74.1259 14.3433 72.375 12.7884 72.375 10.5569C72.375 8.32537 74.1259 6.8335 76.3059 6.8335ZM76.3059 12.8642C77.7368 12.8642 78.4004 11.6694 78.4004 10.5569C78.4004 9.4443 77.7368 8.28113 76.3059 8.28113C74.8786 8.28113 74.215 9.4443 74.215 10.5569C74.215 11.6694 74.8786 12.8642 76.3059 12.8642Z" fill="#575757"></path>
    <path class="svg_text" d="M81.6602 2.9585H83.4692V10.0259H83.5202L86.2638 7.04219H88.5892L85.4602 10.2535L88.7911 14.1413H86.402L83.5383 10.5064H83.4874V14.1413H81.6747V2.9585H81.6602Z" fill="#575757"></path>
    <path class="svg_text" d="M93.7089 8.92591C93.3926 8.51502 92.7926 8.16102 92.1289 8.16102C91.5544 8.16102 90.9671 8.3633 90.9671 8.92591C90.9671 9.48853 91.5289 9.61495 92.5344 9.85519C93.6089 10.108 94.8726 10.5822 94.8726 11.9729C94.8726 13.705 93.4435 14.3372 91.858 14.3372C90.7453 14.3372 89.5817 13.9262 88.8926 13.1676L90.0817 12.074C90.4726 12.5734 91.1489 12.9591 91.9344 12.9591C92.458 12.9591 93.0962 12.7504 93.0962 12.1182C93.0962 11.5304 92.5344 11.3534 91.4399 11.1005C90.3653 10.8477 89.3035 10.4241 89.3035 9.09028C89.3035 7.5099 90.7508 6.8335 92.1798 6.8335C93.2162 6.8335 94.3035 7.1875 94.8926 7.91448L93.7162 8.93224V8.91961L93.7089 8.92591Z" fill="#575757"></path>
</svg>