<svg xmlns:xlink="http://www.w3.org/1999/xlink" class="brandLogoTurboTax" width="76" height="17" viewBox="0 0 76 17" fill="none" xmlns="http://www.w3.org/2000/svg">
    <path class="svg_circle" d="M8.00927 16.0188C12.4327 16.0188 16.0187 12.4327 16.0187 8.00935C16.0187 3.58591 12.4327 0 8.00927 0C3.58582 0 0 3.58591 0 8.00935C0 12.4327 3.58582 16.0188 8.00927 16.0188Z" fill="#241C15"></path>
    <path class="svg_logo" d="M6.23265 10.9302C5.29702 10.2664 4.41829 9.55843 3.5712 8.79987C3.26156 9.46361 2.99611 10.1716 2.73047 10.886C4.06429 12.0364 5.87865 13.326 7.12392 14.0783C8.71683 9.95668 11.2077 7.24476 13.5972 5.34199C13.2874 4.67823 12.8892 4.09665 12.3517 3.61621C9.8232 5.56325 7.7372 8.04759 6.23265 10.9302Z" fill="#FFFFFF"></path>
    <path class="svg_text" d="M17.9844 8.35697V6.91568H19.2484V4.82324H21.0251V6.91568H22.8331V8.35697H21.0251V11.7137C21.0251 12.3648 21.1771 12.8262 21.9727 12.8262C22.2131 12.8262 22.5354 12.7757 22.7385 12.6746L22.802 14.0905C22.4856 14.2107 21.9989 14.2865 21.6004 14.2865C19.6854 14.2865 19.2484 13.1108 19.2484 11.7326V8.36328H17.9844V8.35697Z" fill="#241C15"></path>
    <path class="svg_text" d="M30.4119 14.1346H28.6986V12.9715H28.6737C28.3574 13.6984 27.4983 14.337 26.4299 14.337C24.5523 14.337 23.7617 12.8956 23.7617 11.4164V6.89648H25.5634V10.9043C25.5634 11.7577 25.7601 12.8324 26.9168 12.8324C28.0735 12.8324 28.6039 11.8399 28.6039 10.879V6.90912H30.4119V14.1346Z" fill="#241C15"></path>
    <path class="svg_text" d="M33.9652 6.90926V8.11035H33.9912C34.3836 7.28223 35.1543 6.69434 36.0956 6.69434C36.2351 6.69434 36.4118 6.70699 36.5327 6.74492V8.40115C36.2923 8.33794 36.1403 8.32528 35.9698 8.32528C34.3449 8.32528 34.0287 9.7413 34.0287 10.266V14.1349H32.2207V6.90926H33.9589H33.9652Z" fill="#241C15"></path>
    <path class="svg_text" d="M39.2497 2.75586V7.8257H39.2995C39.6732 7.35791 40.4003 6.70048 41.7275 6.70048C43.7883 6.70048 45.2364 8.35671 45.2364 10.4934C45.2364 12.63 43.8828 14.3495 41.6828 14.3495C40.6717 14.3495 39.6917 13.8817 39.205 13.0599H39.1801V14.1471H37.4668V2.75586H39.2559H39.2497ZM41.3166 8.17339C39.9893 8.17339 39.1924 9.39344 39.1924 10.5187C39.1924 11.6438 39.9955 12.8387 41.3166 12.8387C42.7199 12.8387 43.3961 11.6249 43.3961 10.4934C43.3961 9.36182 42.7199 8.17339 41.3166 8.17339Z" fill="#241C15"></path>
    <path class="svg_text" d="M50.1685 6.70068C52.3491 6.70068 54.1 8.21785 54.1 10.4936C54.1 12.7694 52.3491 14.3497 50.1685 14.3497C47.9871 14.3497 46.2363 12.7694 46.2363 10.4936C46.2363 8.21785 47.9809 6.70068 50.1685 6.70068ZM50.1685 12.8389C51.5963 12.8389 52.26 11.6251 52.26 10.4936C52.26 9.36203 51.5963 8.17359 50.1685 8.17359C48.7391 8.17359 48.0754 9.36203 48.0754 10.4936C48.0754 11.6251 48.7391 12.8389 50.1685 12.8389Z" fill="#241C15"></path>
    <path class="svg_text" d="M54.5234 8.35697V6.91568H55.7871V4.82324H57.5634V6.91568H59.3725V8.35697H57.5634V11.7137C57.5634 12.3648 57.7162 12.8262 58.5125 12.8262C58.7525 12.8262 59.0743 12.7757 59.278 12.6746L59.3398 14.0905C59.0253 14.2107 58.538 14.2865 58.1398 14.2865C56.2253 14.2865 55.7871 13.1108 55.7871 11.7326V8.36328H54.5234V8.35697Z" fill="#241C15"></path>
    <path class="svg_text" d="M65.0098 13.2118H64.9589C64.5989 13.8503 63.7461 14.3118 62.7152 14.3118C61.5516 14.3118 60.0098 13.7554 60.0098 12.0676C60.0098 9.91197 62.7152 9.61488 64.9789 9.61488V9.43786C64.9789 8.54654 64.2261 8.11035 63.3225 8.11035C62.557 8.11035 61.8189 8.47068 61.3552 8.93846L60.4207 7.83854C61.237 7.08626 62.3734 6.69434 63.4734 6.69434C66.0643 6.69434 66.6916 8.28735 66.6916 9.73497V14.1285H65.0025V13.2118H65.0098ZM64.9843 10.8412H64.5789C63.4352 10.8412 61.8243 10.9803 61.8243 12.0424C61.8243 12.7314 62.4752 12.9463 63.0879 12.9463C64.3261 12.9463 64.9898 12.2446 64.9898 11.0941V10.8412H64.9843Z" fill="#241C15"></path>
    <path class="svg_text" d="M70.4546 10.2975L67.8492 6.91553H70.0164L71.5855 9.15966L73.1964 6.91553H75.2783L72.6855 10.2975L75.6383 14.1346H73.4437L71.5655 11.5049L69.6637 14.1346H67.5273L70.4601 10.2975H70.4546Z" fill="#241C15"></path>
</svg>